<?xml version="1.0" encoding="UTF-8"?>
<svg version="1.1" xmlns="http://www.w3.org/2000/svg" width="1118" height="960">
<path d="M0 0 C368.94 0 737.88 0 1118 0 C1118 316.8 1118 633.6 1118 960 C749.06 960 380.12 960 0 960 C0 643.2 0 326.4 0 0 Z " fill="#E2E2E2" transform="translate(0,0)"/>
<path d="M0 0 C0.33 0 0.66 0 1 0 C1.46307882 8.93469732 -0.06214102 17.26333243 -1.71606445 26.00097656 C-2.18083034 28.46464491 -2.62757823 30.93107604 -3.07226562 33.3984375 C-8.12500409 60.88573319 -16.79242497 87.86253854 -29 113 C-29.39300293 113.8254834 -29.78600586 114.6509668 -30.19091797 115.50146484 C-42.78806924 141.92958752 -59.04178809 167.14987601 -78.9140625 188.73046875 C-80.84154676 190.8276005 -82.70761357 192.96376355 -84.5625 195.125 C-87.67230689 198.70819669 -90.99233502 202.03504281 -94.3984375 205.3359375 C-96.08628724 206.92422733 -96.08628724 206.92422733 -97 209 C-97.66 209 -98.32 209 -99 209 C-99 209.66 -99 210.32 -99 211 C-100.50390625 212.48046875 -100.50390625 212.48046875 -102.5625 214.1875 C-105.27482613 216.48728702 -107.84966643 218.81054465 -110.3125 221.375 C-114.3772625 225.49444541 -118.84570383 229.05750918 -123.35888672 232.67089844 C-125.1211275 234.0980985 -126.86015421 235.55061212 -128.59765625 237.0078125 C-137.8835862 244.75219533 -147.54198098 251.70940943 -157.60644531 258.40478516 C-159.9719545 259.98130872 -162.32687101 261.57257932 -164.6796875 263.16796875 C-173.94221766 269.4300026 -183.3067486 275.42717324 -193 281 C-193.86383301 281.49693359 -194.72766602 281.99386719 -195.61767578 282.50585938 C-220.31903583 296.64989109 -245.48948432 309.60938608 -271.40917969 321.36865234 C-274.44815278 322.74928997 -277.48231013 324.13953815 -280.5144043 325.53515625 C-310.19555964 339.18701393 -340.31672465 351.77242077 -371 363 C-371.83901855 363.31211426 -372.67803711 363.62422852 -373.54248047 363.94580078 C-375.60604907 364.71013485 -377.67513645 365.45449203 -379.75 366.1875 C-380.77609375 366.55230469 -381.8021875 366.91710937 -382.859375 367.29296875 C-392.4326393 369.44814392 -400.28329939 366.7044619 -409.375 363.5625 C-410.42229782 363.20744385 -410.42229782 363.20744385 -411.49075317 362.84521484 C-446.42652771 350.98715736 -480.75621849 336.61931846 -514.27929688 321.24707031 C-516.19595138 320.36854633 -518.11405767 319.49318626 -520.03320312 318.62011719 C-547.91643213 305.92524525 -575.65539247 292.68142136 -602 277 C-603.04591309 276.37770508 -604.09182617 275.75541016 -605.16943359 275.11425781 C-624.57322444 263.50231514 -643.30262048 251.08963479 -661 237 C-661.61262695 236.51740723 -662.22525391 236.03481445 -662.85644531 235.53759766 C-673.04416041 227.50039726 -682.68833589 219.03610315 -692 210 C-692.71397949 209.30793457 -693.42795898 208.61586914 -694.16357422 207.90283203 C-702.64464999 199.64372553 -710.77000122 191.38820737 -718 182 C-718.86241496 180.92533961 -719.7271307 179.85252284 -720.59375 178.78125 C-744.9625575 148.50589951 -763.48222851 113.77977436 -775.9375 77 C-776.30319092 75.92717773 -776.66888184 74.85435547 -777.0456543 73.74902344 C-779.75698463 65.47493329 -781.26281787 57.68591063 -783 49 C-759.57 49 -736.14 49 -712 49 C-710.35 52.96 -708.7 56.92 -707 61 C-695.23640453 88.77738039 -681.69800935 114.22719477 -663 138 C-662.36336426 138.81235107 -662.36336426 138.81235107 -661.71386719 139.64111328 C-657.62511078 144.82968306 -653.42563803 149.74855582 -648.66796875 154.33203125 C-646.89815746 156.10184254 -645.30024727 157.96150732 -643.6875 159.875 C-639.5123844 164.69813797 -634.81785843 168.83174046 -630 173 C-629.0203125 173.8559375 -628.040625 174.711875 -627.03125 175.59375 C-595.2351733 203.12139436 -558.32566647 223.98808285 -521 243 C-519.84741699 243.5873291 -518.69483398 244.1746582 -517.50732422 244.77978516 C-496.76776268 255.2473794 -475.41810912 263.89730362 -454 273 C-454 230.43 -454 187.86 -454 144 C-427.30778515 132.3946892 -427.30778515 132.3946892 -414.8125 127.4375 C-413.50575881 126.91366226 -412.19911847 126.38957285 -410.89257812 125.86523438 C-397.97553344 120.71125636 -389.41057192 119.39654616 -376.2421875 124.796875 C-374.7603447 125.38193817 -374.7603447 125.38193817 -373.24856567 125.9788208 C-370.11746348 127.22004923 -366.99654772 128.48496442 -363.875 129.75 C-361.77272425 130.58481769 -359.66986388 131.41816474 -357.56640625 132.25 C-353.69825927 133.78945633 -349.83033982 135.32925005 -345.97216797 136.89355469 C-345.20290985 137.20444031 -344.43365173 137.51532593 -343.64108276 137.83563232 C-340.0334328 139.42612811 -336.52645035 141.23677482 -333 143 C-333 185.9 -333 228.8 -333 273 C-326.4 270.03 -319.8 267.06 -313 264 C-305.6875 260.76953125 -305.6875 260.76953125 -302.35400391 259.29882812 C-264.54136946 242.54214458 -227.6998731 223.08546845 -194 199 C-193.02160156 198.30519531 -192.04320312 197.61039063 -191.03515625 196.89453125 C-188.33688863 194.95503042 -185.66347719 192.98697717 -183 191 C-181.99839844 190.25492188 -180.99679687 189.50984375 -179.96484375 188.7421875 C-167.19326575 179.14339205 -155.45872705 168.63400575 -144.125 157.375 C-143.25746094 156.51672607 -142.38992188 155.65845215 -141.49609375 154.77416992 C-133.77534847 147.01573724 -126.79889044 138.71844662 -120.4375 129.8125 C-119.77621094 128.89082031 -119.11492188 127.96914063 -118.43359375 127.01953125 C-117.96050781 126.35308594 -117.48742187 125.68664062 -117 125 C-118.01815796 125.17390259 -118.01815796 125.17390259 -119.05688477 125.35131836 C-122.22417407 125.88773359 -125.39327846 126.41262606 -128.5625 126.9375 C-129.62919922 127.11990234 -130.69589844 127.30230469 -131.79492188 127.49023438 C-145.2627739 129.70137426 -158.68779925 130.15644731 -172.3125 130.16796875 C-173.73811879 130.17120015 -175.16373729 130.17456545 -176.58935547 130.17805481 C-179.55746221 130.18398419 -182.52554012 130.18590131 -185.49365234 130.18530273 C-188.48362314 130.18522178 -191.47343971 130.19212568 -194.46337891 130.20581055 C-212.07604245 130.28505039 -229.47630197 130.00918005 -247 128 C-247.81273376 127.91076263 -248.62546753 127.82152527 -249.46282959 127.72958374 C-254.87974543 127.13268879 -260.28497775 126.46498727 -265.6875 125.75 C-266.49129089 125.6442868 -267.29508179 125.53857361 -268.12322998 125.42965698 C-290.20381841 122.49330173 -311.83873269 118.03768799 -333 111 C-333.79744629 110.73606445 -334.59489258 110.47212891 -335.41650391 110.20019531 C-346.49325144 106.49984102 -357.38496847 102.36582522 -368.22387695 98.02026367 C-375.86768003 94.97232842 -382.73957745 92.64057142 -391.0625 92.625 C-391.72443359 92.60050781 -392.38636719 92.57601562 -393.06835938 92.55078125 C-406.48719867 92.47560568 -419.45280299 99.03546973 -431.5625 104.1875 C-433.840782 105.1523825 -436.11999915 106.11483466 -438.40159607 107.07185364 C-439.8060316 107.66132396 -441.20856019 108.25536642 -442.60877991 108.8547821 C-446.14170782 110.34164521 -449.1936349 111.23872698 -453 112 C-453 91.21 -453 70.42 -453 49 C-424.81811468 48.88700544 -396.6364136 48.79495313 -368.45435905 48.74093914 C-355.36809029 48.71518966 -342.28197258 48.68010122 -329.19580078 48.62280273 C-317.78600718 48.5728683 -306.376323 48.54068534 -294.96642315 48.52955753 C-288.9284549 48.52305584 -282.89079963 48.5078426 -276.85293198 48.47134972 C-271.16151298 48.43723179 -265.47053378 48.42697895 -259.77902222 48.43446159 C-257.69822926 48.4330941 -255.61742051 48.42325656 -253.53671646 48.40397263 C-241.51674335 48.29810315 -232.0609823 49.13874179 -221 54 C-218.0452287 54.9606981 -215.07018848 55.78502587 -212.0625 56.5625 C-211.28382568 56.76520508 -210.50515137 56.96791016 -209.70288086 57.17675781 C-203.20537213 58.80895755 -196.65874278 60.08684368 -190.0625 61.25 C-189.14025635 61.41314697 -188.2180127 61.57629395 -187.26782227 61.74438477 C-133.32133872 70.8005308 -75.66835511 58.70681281 -31 27 C-20.6756444 19.63227928 -11.22301063 11.32908814 -2.3125 2.3125 C-1.549375 1.549375 -0.78625 0.78625 0 0 Z " fill="#010101" transform="translate(939,561)"/>
<path d="M0 0 C26.4 0 52.8 0 80 0 C95.82070707 27.12121212 95.82070707 27.12121212 101.5 37 C106.40426782 45.51973818 111.34439956 54.01734816 116.3125 62.5 C120.69943179 69.99555232 124.99287012 77.53130082 129.17749023 85.14135742 C133.22352292 92.46879882 137.4565656 99.68448267 141.6875 106.90625 C145.49872158 113.41502452 149.26985886 119.94444877 153 126.5 C157.20240381 133.88248804 161.45896909 141.2311871 165.75 148.5625 C170.88863552 157.34385715 175.96285867 166.16020971 181 175 C186.1669874 184.06589604 191.36636643 193.11181516 196.625 202.125 C197.18058594 203.07761719 197.73617187 204.03023437 198.30859375 205.01171875 C201.44757275 210.38082396 204.63836431 215.71096809 207.91162109 220.99951172 C209 223 209 223 209 225 C211.79563775 222.50615208 213.43253404 219.74784919 215.265625 216.49609375 C216.21804077 214.81652588 216.21804077 214.81652588 217.18969727 213.10302734 C217.6925676 212.20834747 217.6925676 212.20834747 218.20559692 211.29559326 C219.62992079 208.76158447 221.06489886 206.23366239 222.4990387 203.7052002 C223.24053345 202.39750414 223.98144351 201.08947639 224.7217865 199.78112793 C228.30012827 193.45870483 231.92614495 187.16422052 235.5625 180.875 C236.80210764 178.72918071 238.04169094 176.58334735 239.28125 174.4375 C239.89355469 173.37789062 240.50585938 172.31828125 241.13671875 171.2265625 C243.0203505 167.96475993 244.90122321 164.70138156 246.78125 161.4375 C253.39909168 149.95040905 260.04487232 138.48054255 266.73291016 127.03417969 C272.89919054 116.47379718 279.0049595 105.87873234 285.10888672 95.28222656 C288.85946399 88.77270411 292.61501989 82.2660522 296.37036133 75.75927734 C299.52385162 70.29465337 302.6746704 64.82852098 305.8203125 59.359375 C313.29550502 46.36939819 320.84887826 33.43012867 328.49658203 20.54101562 C330.00310493 17.99475217 331.50119697 15.44372929 332.99609375 12.890625 C333.46233154 12.09470947 333.92856934 11.29879395 334.40893555 10.47875977 C335.28008683 8.99036458 336.15010646 7.50130626 337.01879883 6.01147461 C339.88975136 1.11024864 339.88975136 1.11024864 341 0 C343.49492388 -0.09502416 345.96206014 -0.12557566 348.45727539 -0.11352539 C349.23770706 -0.11367142 350.01813873 -0.11381744 350.82221985 -0.1139679 C353.4140598 -0.11326858 356.00582878 -0.10547536 358.59765625 -0.09765625 C360.3898464 -0.09579213 362.18203706 -0.0943682 363.97422791 -0.09336853 C368.70070797 -0.08954284 373.42715752 -0.07971212 378.15362549 -0.06866455 C382.9728555 -0.05845153 387.79209042 -0.05387115 392.61132812 -0.04882812 C402.07423219 -0.03808989 411.53711356 -0.02101286 421 0 C421.16339146 13.55365769 421.28717212 27.10707472 421.3626852 40.66152287 C421.39895842 46.95789351 421.44802683 53.25358222 421.52807617 59.54956055 C421.60507039 65.64455641 421.64618411 71.7389034 421.6641407 77.83434868 C421.67690932 80.14041779 421.70183401 82.44645816 421.7401104 84.75224495 C421.98599695 100.20264964 419.96020222 113.10909361 414.78380203 127.68135262 C413.10849262 132.63726191 412.13825852 137.73731623 411.1875 142.875 C410.90229492 144.29425781 410.90229492 144.29425781 410.61132812 145.7421875 C407.71103406 160.73202348 406.66927209 175.4232009 406.73925781 190.6652832 C406.74997627 193.43137587 406.73929246 196.19681746 406.7265625 198.96289062 C406.71369464 213.90015475 407.56075787 228.64029215 411.1875 243.1875 C411.38526252 243.99457114 411.58302504 244.80164228 411.78678036 245.63317013 C412.94450908 250.23168773 414.20606293 254.73450778 415.78187561 259.20838928 C420.83277496 273.73065557 421.94511754 286.70758309 421.68359375 301.99609375 C421.67049124 304.29491139 421.66054918 306.59374897 421.65357971 308.89259338 C421.62722009 314.85888418 421.55878546 320.82392664 421.48065186 326.78973389 C421.39544226 333.99277711 421.36413783 341.19624457 421.3234787 348.39965057 C421.25626162 359.2672942 421.12189255 370.13221478 421 381 C393.94 381 366.88 381 339 381 C339 304.44 339 227.88 339 149 C338.34 149 337.68 149 337 149 C336.90195068 149.53794189 336.80390137 150.07588379 336.70288086 150.63012695 C335.79662595 153.68570749 334.34545207 156.15552278 332.75390625 158.91796875 C332.42748138 159.48740707 332.10105652 160.0568454 331.76473999 160.64353943 C330.70208261 162.4943095 329.63244562 164.34093535 328.5625 166.1875 C327.82266026 167.47229904 327.08316014 168.7572937 326.34399414 170.04248047 C322.19941241 177.23940623 318.02087948 184.41626062 313.7902832 191.56298828 C310.06145124 197.86811811 306.40536511 204.21456064 302.75 210.5625 C297.85842108 219.0564903 292.94621565 227.53770677 288 236 C283.13892391 244.31749058 278.30858878 252.65205685 273.5 261 C266.97038525 272.33394875 260.39142699 283.63831943 253.79101562 294.93115234 C251.87234221 298.21873751 249.95913838 301.5094638 248.046875 304.80078125 C247.40113525 305.91114746 246.75539551 307.02151367 246.09008789 308.16552734 C244.8432965 310.30969496 243.59764881 312.45452812 242.35327148 314.60009766 C241.51904663 316.03361572 241.51904663 316.03361572 240.66796875 317.49609375 C240.17578857 318.34357178 239.6836084 319.1910498 239.17651367 320.06420898 C238 322 238 322 237 323 C235.34530475 323.14047253 233.68472058 323.21228159 232.0246582 323.25634766 C230.96297928 323.28532135 229.90130035 323.31429504 228.80744934 323.34414673 C223.93275859 323.44133807 219.05822109 323.51570539 214.18286133 323.56982422 C211.61125207 323.60648502 209.03983324 323.66105471 206.46899414 323.73388672 C202.76639639 323.83725934 199.06709927 323.88174684 195.36328125 323.9140625 C194.21620193 323.95737701 193.06912262 324.00069153 191.88728333 324.0453186 C184.08002406 324.02685612 184.08002406 324.02685612 180.99456787 321.09329224 C179.43489778 318.78778211 178.19899034 316.50915303 177 314 C176.12666098 312.48668067 175.24504781 310.97807522 174.3515625 309.4765625 C173.44013029 307.86082656 172.53140661 306.24356058 171.625 304.625 C166.93605672 296.33290339 162.12757194 288.11994111 157.25 279.9375 C151.35141653 270.03005398 145.56954595 260.0631798 139.86734009 250.04153442 C134.70742339 240.97308857 129.48753373 231.94211956 124.21826172 222.93676758 C119.95093791 215.64045451 115.71832788 208.32473888 111.5 201 C106.00602049 191.46083007 100.48026708 181.94091338 94.91796875 172.44140625 C90.55936336 164.98925411 86.28405516 157.49709652 82 150 C81.67 226.23 81.34 302.46 81 381 C54.27 381 27.54 381 0 381 C0 255.27 0 129.54 0 0 Z " fill="#010101" transform="translate(148,198)"/>
<path d="M0 0 C26.03594249 22.40889712 44.82165257 53.11484009 47.44140625 88.00390625 C49.12909687 126.0855016 40.80571342 158.81153071 14.88916016 187.73632812 C1.01091017 202.80780824 -15.83128919 213.29509676 -35.18359375 219.87890625 C-36.01761719 220.16523926 -36.85164062 220.45157227 -37.7109375 220.74658203 C-49.27487419 224.48507867 -60.83785594 225.37174413 -72.93359375 225.31640625 C-74.20928223 225.3114917 -75.4849707 225.30657715 -76.79931641 225.30151367 C-85.766565 225.18980973 -93.92461466 224.57440663 -102.55859375 222.00390625 C-103.76644531 221.66359375 -104.97429687 221.32328125 -106.21875 220.97265625 C-131.55773586 213.21635861 -155.82268077 197.13103953 -169.55859375 174.00390625 C-169.90583496 173.43091797 -170.25307617 172.85792969 -170.61083984 172.26757812 C-188.23691761 143.00333662 -193.9780538 110.11087282 -186.24316406 76.68212891 C-178.39450801 45.97608151 -159.66809439 18.72682394 -132.703125 1.859375 C-130.34868303 0.470108 -128.03094588 -0.83660355 -125.55859375 -1.99609375 C-160.66651687 1.3638442 -190.10492274 18.60819162 -215.55859375 42.00390625 C-215.55859375 33.95709416 -203.86809756 24.68585486 -198.55859375 19.00390625 C-197.73746094 18.11703125 -196.91632812 17.23015625 -196.0703125 16.31640625 C-146.51136741 -35.37173796 -56.29936727 -46.88134705 0 0 Z " fill="#040404" transform="translate(861.55859375,173.99609375)"/>
<path d="M0 0 C11.30004411 16.95006617 6.43481541 54.81078922 2.90478516 73.80371094 C-1.38847657 94.29802797 -8.87326993 114.24012195 -23 130 C-23.72058594 130.83917969 -24.44117188 131.67835938 -25.18359375 132.54296875 C-41.90345408 151.6969162 -64.5794016 165.02964956 -89 172 C-73.23121203 173.4530965 -57.28853146 168.55688109 -43.14453125 161.78515625 C-41 161 -41 161 -38 162 C-54.24390735 183.17430741 -73.25959174 198.82010926 -98 209 C-98.71172363 209.29632324 -99.42344727 209.59264648 -100.15673828 209.89794922 C-124.63043236 219.79569232 -152.04285583 220.67039769 -178 218 C-159.65542716 225.97947787 -141.96869393 229.78831429 -122 231 C-124.853189 234.04361436 -127.99384325 235.65835075 -131.75 237.375 C-132.41684814 237.68026611 -133.08369629 237.98553223 -133.77075195 238.30004883 C-152.06384198 246.49506071 -172.23139732 251.09883059 -192.30078125 251.203125 C-193.17663376 251.20882507 -194.05248627 251.21452515 -194.95487976 251.22039795 C-196.80462457 251.22979872 -198.65438575 251.23636221 -200.50415039 251.24023438 C-203.26675698 251.24984094 -206.02858618 251.28087007 -208.79101562 251.3125 C-224.99698998 251.41045198 -240.51156761 249.44156673 -256.125 245 C-257.15270508 244.71020264 -258.18041016 244.42040527 -259.23925781 244.12182617 C-272.70374424 240.13533417 -288.14438987 235.15441217 -299 226 C-270.87190171 212.6595535 -241.0143464 203.78488917 -210.8125 196.5 C-165.76904981 185.58527715 -121.15226183 168.10898104 -84 140 C-83.15477783 139.36892334 -83.15477783 139.36892334 -82.29248047 138.72509766 C-65.57112986 126.19467976 -50.50911157 111.7754642 -38 95 C-41.43040807 97.64665931 -44.45473202 100.42464876 -47.4375 103.5625 C-53.49288159 109.67162758 -60.14034402 114.83001217 -67 120 C-67.61037109 120.46583496 -68.22074219 120.93166992 -68.84960938 121.41162109 C-116.27796852 157.55762821 -173.73756822 173.58411947 -230.94140625 186.61328125 C-269.55316756 195.42730741 -306.48005803 207.79181024 -339 231 C-340.02351562 231.72832031 -341.04703125 232.45664062 -342.1015625 233.20703125 C-348.43183974 237.84199677 -354.41126091 242.81663773 -360.28149414 248.01513672 C-363.04164833 250.43781004 -365.57877545 252.59964584 -369 254 C-363.69774122 234.38164252 -345.67968102 216.54912192 -329.125 205.625 C-321.87625142 200.73596423 -318.76624572 195.05733821 -315.09375 187.27734375 C-309.42931875 175.30211385 -300.24444325 165.32761125 -291 156 C-289.83597656 154.81664062 -289.83597656 154.81664062 -288.6484375 153.609375 C-273.07329946 138.73003351 -253.05196307 128.34022843 -233 121 C-231.9493335 120.61368408 -230.89866699 120.22736816 -229.81616211 119.8293457 C-223.81231791 117.71588164 -218.3546855 116.4236457 -212 116 C-212.825 116.969375 -213.65 117.93875 -214.5 118.9375 C-215.32371094 119.90623047 -215.32371094 119.90623047 -216.1640625 120.89453125 C-217.38177286 122.29101186 -218.62677919 123.6641796 -219.8984375 125.01171875 C-229.70681072 135.49853676 -235.81763923 148.19133233 -242 161 C-240.8553125 159.6078125 -240.8553125 159.6078125 -239.6875 158.1875 C-231.05902382 148.19133995 -221.55454694 139.87069489 -211 132 C-210.16984375 131.37480469 -209.3396875 130.74960937 -208.484375 130.10546875 C-183.80223081 112.18153071 -154.54887413 100.96927037 -125.4375 92.5 C-124.56254883 92.24436279 -123.68759766 91.98872559 -122.78613281 91.7253418 C-118.77704761 90.60218165 -115.20796648 89.65579006 -111 90 C-111.47317238 96.07012572 -112.79819775 100.509603 -115.625 105.875 C-115.98400391 106.57189941 -116.34300781 107.26879883 -116.71289062 107.98681641 C-121.71185677 117.49763603 -128.20938985 125.71016423 -135 134 C-115.79524906 125.36245651 -99.30804689 105.00188193 -90.3125 86.5 C-86.59874168 80.16973014 -79.74324859 77.9225072 -73.32080078 75.0625 C-57.08164872 67.62795447 -42.6689348 58.48795152 -29 47 C-28.18015625 46.38125 -27.3603125 45.7625 -26.515625 45.125 C-12.95548499 33.67047179 -5.80674337 16.30354869 0 0 Z " fill="#020202" transform="translate(990,345)"/>
<path d="M0 0 C0.495 0.99 0.495 0.99 1 2 C0.17321824 4.32400835 -0.7152991 6.55011743 -1.6875 8.8125 C-15.4711097 42.36738652 -15.91944473 78.67085677 -2.07275391 112.24853516 C10.95540962 142.6608436 33.22400837 163.11586295 61 180 C60.07158824 181.10503552 59.13995758 182.207367 58.20703125 183.30859375 C57.68858643 183.92275146 57.1701416 184.53690918 56.63598633 185.16967773 C55.07006262 186.92161477 53.43286788 188.49183218 51.6875 190.0625 C43.78181945 197.8630052 37.94466768 208.70643287 34 219 C33.73815918 219.66233643 33.47631836 220.32467285 33.20654297 221.00708008 C31.44861043 225.76526564 30.83923228 229.68705416 30.88989258 234.73510742 C30.84648401 241.51894155 30.03127123 246.39174459 25.33984375 251.5078125 C21.78637365 254.94560464 17.9932636 258.05395987 14.13916016 261.14599609 C10.72248424 264.10721921 7.85762697 267.50721789 5 271 C-0.47469437 268.62589935 -1.45058141 264.10196231 -3.55078125 258.8359375 C-15.58038245 227.30629782 -15.33848476 191.19414169 -4.57543945 159.24780273 C-2.81945989 154.00741964 -2.04856848 150.16903734 -4.3125 145.0078125 C-4.869375 144.05648437 -5.42625 143.10515625 -6 142.125 C-6.556875 141.15820312 -7.11375 140.19140625 -7.6875 139.1953125 C-8.120625 138.47085938 -8.55375 137.74640625 -9 137 C-11.96992764 142.82985795 -13.88559833 148.70153427 -15.5625 155 C-15.75996826 155.72743408 -15.95743652 156.45486816 -16.16088867 157.2043457 C-19.79052694 171.25518497 -21.53769436 184.83130665 -21.375 199.3125 C-21.36702393 200.4564473 -21.36702393 200.4564473 -21.35888672 201.62350464 C-21.15341787 226.86225768 -16.57123499 251.51366566 -4.90722656 274.19433594 C-3.59968231 276.84986395 -2.88353244 278.46459688 -3.5234375 281.40625 C-4.01070312 282.2621875 -4.49796875 283.118125 -5 284 C-5.33563965 284.60030029 -5.6712793 285.20060059 -6.01708984 285.8190918 C-7.23157249 287.96074079 -8.48574365 290.07487954 -9.75 292.1875 C-10.19520996 292.93765381 -10.64041992 293.68780762 -11.09912109 294.46069336 C-12.39554609 296.64279716 -13.69685645 298.82190339 -15 301 C-15.65742187 302.10085938 -16.31484375 303.20171875 -16.9921875 304.3359375 C-18.32397724 306.5598352 -19.65913024 308.78156914 -21 311 C-24.1623716 309.62803835 -25.9936218 308.1434878 -28.1875 305.5 C-30.09430986 303.23364337 -31.99801982 301.00209823 -34.03125 298.84765625 C-45.43551966 286.7616096 -54.36918817 272.7029199 -62 258 C-62.50974365 257.03537842 -62.50974365 257.03537842 -63.02978516 256.05126953 C-72.40678444 238.10895766 -78.65562646 217.95263619 -82 198 C-82.17515137 196.95948486 -82.35030273 195.91896973 -82.53076172 194.84692383 C-84.14283791 184.1958602 -84.39938637 173.69250409 -84.375 162.9375 C-84.37445618 162.03303131 -84.37391235 161.12856262 -84.37335205 160.19668579 C-84.33532851 146.43201211 -83.6313783 133.34545345 -80 120 C-79.78569336 119.17419434 -79.57138672 118.34838867 -79.35058594 117.49755859 C-71.4871777 87.62919792 -57.91107006 59.68099693 -38 36 C-37.12462429 34.93911198 -36.24964831 33.87789405 -35.375 32.81640625 C-24.92294765 20.20798832 -13.53016644 9.32078133 0 0 Z " fill="#020202" transform="translate(667,225)"/>
<path d="M0 0 C10.25627217 0.59026267 20.42711333 1.47910759 30.625 2.75 C31.2864502 2.8221875 31.94790039 2.894375 32.62939453 2.96875 C34.58084832 3.18224238 36.5288382 3.42667925 38.4765625 3.671875 C40.1793335 3.87441895 40.1793335 3.87441895 41.91650391 4.08105469 C46.55561368 5.4636049 48.85395884 8.26052094 51.46630859 12.22558594 C51.85641113 12.97098633 52.24651367 13.71638672 52.6484375 14.484375 C53.09348633 15.3292749 53.53853516 16.1741748 53.99707031 17.04467773 C54.45178711 17.93743408 54.90650391 18.83019043 55.375 19.75 C55.8503418 20.67433838 56.32568359 21.59867676 56.81542969 22.55102539 C59.80098759 28.43673846 62.65286713 34.36983814 65.25 40.4375 C65.5495459 41.11586914 65.8490918 41.79423828 66.15771484 42.49316406 C67.90945707 46.76659784 68.36905179 49.578254 67 54 C65.76044182 56.43958603 64.50704043 58.69135566 63.0625 61 C62.66571045 61.64718994 62.2689209 62.29437988 61.86010742 62.96118164 C57.94583158 69.25626629 53.753618 75.39110121 49.23754883 81.27148438 C47.93049333 83.02372573 47.93049333 83.02372573 46.81518555 85.16601562 C45.38456925 87.56462829 44.17300137 89.23418291 42 91 C37.69948461 92.04891556 33.58621081 91.84849388 29.1875 91.625 C27.98440186 91.5926123 26.78130371 91.56022461 25.54174805 91.52685547 C16.31376405 91.22137908 7.09814663 90.62145187 -2 89 C-2.68916504 88.90058105 -3.37833008 88.80116211 -4.08837891 88.69873047 C-8.0468594 87.9770992 -9.59084291 87.4901361 -12.25 84.3046875 C-12.8275 83.17289062 -13.405 82.04109375 -14 80.875 C-14.32266846 80.25898926 -14.64533691 79.64297852 -14.9777832 79.00830078 C-16.01147422 77.01783994 -17.00504211 75.01005468 -18 73 C-18.69951047 71.64463737 -19.40133951 70.29046888 -20.10546875 68.9375 C-23.25593835 62.83158637 -26.25325069 56.64536862 -29.0625 50.375 C-29.46597656 49.47523438 -29.86945312 48.57546875 -30.28515625 47.6484375 C-31.3512548 43.69862975 -30.99245579 40.8265753 -29.02368164 37.203125 C-27.7424238 35.190716 -26.39208306 33.24985831 -25 31.3125 C-24.5045166 30.60915527 -24.0090332 29.90581055 -23.49853516 29.18115234 C-17.1575281 20.27282064 -10.15682856 12.0330171 -2.75 3.99609375 C-0.95218021 2.11549325 -0.95218021 2.11549325 0 0 Z " fill="#E2E2E1" transform="translate(768,253)"/>
<path d="M0 0 C1.4859668 0.00773438 1.4859668 0.00773438 3.00195312 0.015625 C9.32021982 0.08191501 15.53871846 0.5067224 21.8125 1.25 C21.86784912 2.13671387 21.92319824 3.02342773 21.98022461 3.93701172 C22.18936255 7.27320793 22.40017195 10.60929028 22.61206055 13.9453125 C22.70288455 15.38049257 22.79307043 16.81571319 22.88256836 18.25097656 C22.9695716 19.64497261 23.05760024 21.03890506 23.14668274 22.43276978 C23.23364853 23.80348393 23.31747069 25.17440123 23.39811707 26.54550171 C23.63513287 30.36322506 24.09260044 34.07095742 24.703125 37.84375 C25.05747249 41.2642223 24.78919619 42.96685159 22.70703125 45.7265625 C21.70444157 46.7997147 20.67528709 47.84848223 19.625 48.875 C18.50722799 50.06872744 17.39409576 51.26681296 16.28515625 52.46875 C15.42108154 53.39107422 15.42108154 53.39107422 14.53955078 54.33203125 C11.66879333 57.52013848 9.11473343 60.93008109 6.5625 64.375 C6.06693604 65.04096191 5.57137207 65.70692383 5.06079102 66.39306641 C0.77159048 72.21050431 -3.27411988 78.17275087 -7.1875 84.25 C-13.98557154 82.91934299 -20.15130244 80.91615326 -26.5625 78.3125 C-27.45066406 77.96509766 -28.33882812 77.61769531 -29.25390625 77.25976562 C-30.10597656 76.91751953 -30.95804688 76.57527344 -31.8359375 76.22265625 C-32.60083496 75.91593994 -33.36573242 75.60922363 -34.15380859 75.29321289 C-36.40365185 74.13912163 -37.70132397 73.3050915 -39.1875 71.25 C-39.59155273 68.63720703 -39.59155273 68.63720703 -39.62109375 65.5078125 C-39.63269531 64.36530029 -39.64429688 63.22278809 -39.65625 62.0456543 C-39.6459375 60.83433838 -39.635625 59.62302246 -39.625 58.375 C-39.61597656 57.14370361 -39.60695313 55.91240723 -39.59765625 54.64379883 C-39.25543485 36.73777696 -32.25935579 23.50617384 -21.5 9.5625 C-21.04874756 8.97412354 -20.59749512 8.38574707 -20.13256836 7.77954102 C-14.02956927 0.14379972 -9.31220517 -0.19016628 0 0 Z " fill="#E1E1E1" transform="translate(732.1875,201.75)"/>
<path d="M0 0 C6.07688134 0.60461383 11.35638001 2.98858262 16.9375 5.3125 C17.90107422 5.70373047 18.86464844 6.09496094 19.85742188 6.49804688 C33.83946283 12.26097968 33.83946283 12.26097968 36.26953125 15.90234375 C36.89958145 18.26389881 37.4987778 20.6068405 38 23 C38.20367188 23.91523438 38.40734375 24.83046875 38.6171875 25.7734375 C39.90437456 32.63255758 40.20226205 39.4160798 40.25 46.375 C40.25926514 47.21909424 40.26853027 48.06318848 40.27807617 48.93286133 C40.25301216 53.89602698 40.22056546 58.48075873 38 63 C35.15112282 64.94749857 32.10690317 66.07831305 28.875 67.25 C27.62976563 67.73726562 27.62976563 67.73726562 26.359375 68.234375 C24.70846827 68.87610677 23.05183038 69.50329983 21.38964844 70.11523438 C19.84278606 70.68795907 18.30350335 71.28177706 16.77441406 71.90039062 C12.98477099 73.42051988 10.05954 74.14152044 6 74 C5.60208252 73.13834229 5.20416504 72.27668457 4.79418945 71.38891602 C3.29732778 68.15000057 1.79591375 64.91321189 0.29321289 61.67700195 C-0.35286083 60.28401104 -0.9977476 58.89046892 -1.64135742 57.49633789 C-2.57408661 55.47651174 -3.51051784 53.45846355 -4.44921875 51.44140625 C-4.75334686 50.78637115 -5.05747498 50.13133606 -5.37081909 49.45645142 C-7.07490088 45.82861229 -8.90897026 42.34612038 -10.95703125 38.90234375 C-12.94361753 35.36561504 -13.78985546 33.12005684 -13 29 C-11.77631254 25.81362556 -10.29106126 22.79334801 -8.75 19.75 C-7.92096106 18.06228467 -7.0941145 16.37349051 -6.26953125 14.68359375 C-5.87459473 13.87776855 -5.4796582 13.07194336 -5.07275391 12.24169922 C-3.16160975 8.24804295 -1.52692698 4.15366849 0 0 Z " fill="#E1E1E1" transform="translate(842,219)"/>
<path d="M0 0 C4.43729427 4.08474212 5.12708606 9.12850403 5.625 14.9375 C5.47784935 23.16661705 0.9929531 30.04335593 -3 37 C-3.56203125 38.00546875 -4.1240625 39.0109375 -4.703125 40.046875 C-13.40250591 54.65845653 -29.60565205 72.65809832 -46.3828125 77.71875 C-46.91648437 77.8115625 -47.45015625 77.904375 -48 78 C-53.3405638 71.74300809 -58.44806087 64.9075782 -61 57 C-59.8563996 54.15653027 -58.23499638 51.83572828 -56.3828125 49.41015625 C-47.51097589 37.58104077 -39.62191242 25.24382483 -33 12 C-31.14916992 11.2097168 -31.14916992 11.2097168 -28.73046875 10.44921875 C-27.84641357 10.16506104 -26.9623584 9.88090332 -26.05151367 9.58813477 C-24.6338269 9.14232056 -24.6338269 9.14232056 -23.1875 8.6875 C-15.27630732 6.1344429 -7.58882272 3.40947108 0 0 Z " fill="#E1E1E1" transform="translate(883,296)"/>
<path d="M0 0 C7.32213517 3.86829783 13.78600631 9.59410414 20 15 C20.79019531 15.62648437 21.58039062 16.25296875 22.39453125 16.8984375 C24.5724446 18.87230161 25.87277013 20.28055794 27 23 C26.68429294 27.70271979 24.9191691 31.75162845 23 36 C22.51031738 37.10529053 22.51031738 37.10529053 22.01074219 38.23291016 C15.74386979 52.25613021 15.74386979 52.25613021 14 54 C5.66230776 54.54378201 -2.55708759 53.64147487 -10.8125 52.5625 C-11.89208984 52.42779297 -12.97167969 52.29308594 -14.08398438 52.15429688 C-19.39688098 51.48652017 -24.7022055 50.77842059 -30 50 C-31.84187681 45.12444374 -32.59429439 40.51750469 -33.125 35.375 C-33.25237549 34.19381592 -33.25237549 34.19381592 -33.38232422 32.98876953 C-34.02468725 26.64915046 -34.22487297 20.3714008 -34 14 C-6.17321532 -2.0745226 -6.17321532 -2.0745226 0 0 Z " fill="#E1E1E1" transform="translate(802,189)"/>
<path d="M0 0 C0.77766724 0.28133789 0.77766724 0.28133789 1.57104492 0.56835938 C5.85424102 2.06307762 10.02997695 3.24261207 14.48828125 4.09375 C21.93380343 5.75358382 29.27827917 7.41677316 34.08251953 13.74169922 C37.77016855 20.41007035 40.26929409 27.50927743 42.76220703 34.69140625 C44.78538029 40.09930446 47.5980301 45.00037015 50.50146484 49.97436523 C53.01811574 54.44847633 53.01811574 54.44847633 52.9296875 57.140625 C49.43794927 64.12410146 44.1655829 70.20446797 39 76 C34.31695848 74.5403507 31.18504659 71.80738972 27.6875 68.5 C26.82765503 67.69151611 26.82765503 67.69151611 25.95043945 66.86669922 C12.63969094 54.13957439 -1.06519546 34.15255286 -2.16796875 15.09765625 C-2.23279416 5.02378687 -2.23279416 5.02378687 0 0 Z " fill="#E1E1E1" transform="translate(691,290)"/>
<path d="M0 0 C3.6764319 0.44117183 7.33233232 0.88545212 10.98266602 1.51171875 C17.35588676 2.56466536 23.36982367 3.09295298 29.83203125 2.8515625 C50.34158857 2.16256857 50.34158857 2.16256857 55.2578125 5.56054688 C58.92757426 9.83197888 60.47253475 14.65664883 62 20 C62.99 21.485 62.99 21.485 64 23 C64 23.99 64 24.98 64 26 C43.7667516 34.39870688 19.6122167 33.195649 -0.5625 25.24609375 C-11.67854825 20.64290349 -11.67854825 20.64290349 -13 18 C-12.64172119 17.52578613 -12.28344238 17.05157227 -11.91430664 16.56298828 C-10.29536988 14.41824524 -8.67890842 12.27164909 -7.0625 10.125 C-6.49853516 9.37863281 -5.93457031 8.63226563 -5.35351562 7.86328125 C-4.81533203 7.14785156 -4.27714844 6.43242187 -3.72265625 5.6953125 C-3.22515869 5.03547363 -2.72766113 4.37563477 -2.21508789 3.69580078 C-0.93843111 2.00805147 -0.93843111 2.00805147 0 0 Z " fill="#E0E0E0" transform="translate(756,355)"/>
<path d="M0 0 C33.57860619 -0.8606504 64.59616126 7.07742094 89.7421875 30.3984375 C98.18766473 38.50206872 105.88328437 46.86065182 110 58 C103.89963918 56.02268813 98.03871873 53.59565228 92.125 51.125 C91.07441406 50.69058594 90.02382813 50.25617188 88.94140625 49.80859375 C72.40168976 42.91532017 72.40168976 42.91532017 66.0625 36.5625 C47.04662625 18.30600978 26.38460361 4.64145861 0 1 C0 0.67 0 0.34 0 0 Z " fill="#E0E0DF" transform="translate(768,160)"/>
<path d="M0 0 C1.41632844 0.30236989 2.83302419 0.60302225 4.25 0.90234375 C5.01723389 1.06959961 5.78446777 1.23685547 6.57495117 1.40917969 C15.3532572 3.32161845 24.07911596 4.89398501 33 6 C30.09642625 7.93571583 27.51105177 8.84349214 24.19995117 9.85058594 C4.42607905 15.90546477 -11.95390212 25.84874217 -25.6003418 41.36499023 C-30.0406473 46.30648902 -35.01388843 50.04985541 -41 53 C-41.66 53 -42.32 53 -43 53 C-40.42216687 31.3000316 -29.19318782 16.31438086 -12.515625 3.01953125 C-7.76867524 -0.46103426 -5.90076368 -1.36869785 0 0 Z " fill="#060606" transform="translate(748,412)"/>
<path d="M0 0 C0.66 0 1.32 0 2 0 C2.11778809 0.53890869 2.23557617 1.07781738 2.35693359 1.63305664 C4.6612993 12.26573295 4.6612993 12.26573295 11.08203125 20.5546875 C14.98785332 22.53674646 18.99674508 23.78765596 23.2109375 24.94140625 C25.08652344 25.46541016 25.08652344 25.46541016 27 26 C27.495 26.99 27.495 26.99 28 28 C27.19163696 28.21426636 27.19163696 28.21426636 26.36694336 28.43286133 C15.6307688 31.31304995 15.6307688 31.31304995 7.41308594 38.24365234 C4.79239288 43.59397463 3.2914586 49.20304554 2 55 C1.34 54.67 0.68 54.34 0 54 C-0.57157228 51.97313299 -1.1413737 49.94574507 -1.70092773 47.91552734 C-3.96052431 40.21225978 -3.96052431 40.21225978 -9.1875 34.36669922 C-14.51246851 31.51388894 -20.18596295 29.59757813 -26 28 C-23.38610657 25.05263048 -21.21501112 24.48788402 -17.40039062 23.56689453 C-12.62668262 22.30843064 -8.42321613 21.12317441 -5.56835938 16.86425781 C-3.01179178 11.47765892 -1.36539394 5.79263233 0 0 Z " fill="#060606" transform="translate(965,259)"/>
<path d="M0 0 C0.66 0 1.32 0 2 0 C2.38865234 1.51980469 2.38865234 1.51980469 2.78515625 3.0703125 C4.88049463 10.54463265 4.88049463 10.54463265 9.75634766 16.29931641 C13.96961942 18.49470191 18.41085121 19.82643905 23 21 C21.1362618 24.72747639 15.88111147 25.22703487 12.1015625 26.48828125 C6.98926584 28.98004297 5.7812505 33.22090388 3.8125 38.3125 C3.46832031 39.19550781 3.12414062 40.07851562 2.76953125 40.98828125 C2.51558594 41.65214844 2.26164063 42.31601563 2 43 C1.34 43 0.68 43 0 43 C-0.83739781 40.8765984 -1.66980283 38.7512272 -2.5 36.625 C-3.19609375 34.84996094 -3.19609375 34.84996094 -3.90625 33.0390625 C-5 30 -5 30 -5 28 C-5.66386719 27.81824219 -6.32773437 27.63648438 -7.01171875 27.44921875 C-11.73453613 26.10476709 -15.92835339 24.85015263 -20 22 C-19.67 21.34 -19.34 20.68 -19 20 C-16.94079789 19.42554447 -14.87756292 18.86551685 -12.8125 18.3125 C-8.43478003 16.7442179 -5.90074442 15.47251302 -3.8046875 11.3359375 C-2.24775361 7.63904579 -1.06462053 3.86471835 0 0 Z " fill="#070707" transform="translate(620,139)"/>
<path d="M0 0 C0.66 0 1.32 0 2 0 C2.17273438 0.74765625 2.34546875 1.4953125 2.5234375 2.265625 C4.1560834 8.35274881 4.1560834 8.35274881 8.4921875 12.62109375 C10.97953144 13.58291371 13.40715171 14.38147703 16 15 C16 15.66 16 16.32 16 17 C15.32453125 17.17273438 14.6490625 17.34546875 13.953125 17.5234375 C8.31009779 19.259239 8.31009779 19.259239 4.4453125 23.4921875 C3.48104764 25.97675317 2.66004849 28.41891486 2 31 C1.34 31 0.68 31 0 31 C-0.24492188 30.32453125 -0.48984375 29.6490625 -0.7421875 28.953125 C-3.06886452 23.3356395 -3.06886452 23.3356395 -7.55859375 19.4453125 C-10.02105034 18.48827263 -12.44413952 17.66502001 -15 17 C-15 16.34 -15 15.68 -15 15 C-13.87851562 14.75830078 -13.87851562 14.75830078 -12.734375 14.51171875 C-6.52984678 12.87537769 -6.52984678 12.87537769 -2.37890625 8.28515625 C-1.41331686 5.53694029 -0.61344969 2.84640657 0 0 Z " fill="#0B0B0B" transform="translate(985,528)"/>
<path d="M0 0 C0.66 0 1.32 0 2 0 C2.17273438 0.66386719 2.34546875 1.32773438 2.5234375 2.01171875 C3.85679892 6.20140945 4.82621278 9.16289469 8.4921875 11.77734375 C10.96358825 12.98503959 13.41481526 14.06262385 16 15 C13.94614096 17.05385904 12.76378979 17.53187833 10.125 18.5625 C5.56604167 20.72593295 4.31433079 23.57377117 2.59375 28.171875 C2.29984375 29.07679687 2.29984375 29.07679687 2 30 C1.34 30 0.68 30 0 30 C-0.17273438 29.32453125 -0.34546875 28.6490625 -0.5234375 27.953125 C-2.259239 22.31009779 -2.259239 22.31009779 -6.4921875 18.4453125 C-8.97675317 17.48104764 -11.41891486 16.66004849 -14 16 C-13 14 -13 14 -10.71484375 13.1484375 C-9.79832031 12.89320312 -8.88179687 12.63796875 -7.9375 12.375 C-7.01839844 12.11460938 -6.09929688 11.85421875 -5.15234375 11.5859375 C-4.44207031 11.39257812 -3.73179687 11.19921875 -3 11 C-2.85691406 10.24332031 -2.71382812 9.48664063 -2.56640625 8.70703125 C-1.93884277 5.7077106 -1.00850496 2.89104756 0 0 Z " fill="#0A0A0A" transform="translate(699,94)"/>
<path d="M0 0 C1.30324219 -0.01417969 2.60648438 -0.02835938 3.94921875 -0.04296875 C7.3125 0.1875 7.3125 0.1875 10.3125 2.1875 C7.63406064 3.70598531 4.94665558 5.20199742 2.25 6.6875 C1.49783203 7.11675781 0.74566406 7.54601562 -0.02929688 7.98828125 C-7.54642231 12.08853149 -13.50772422 11.45593496 -21.625 9.6875 C-22.30884766 9.54441406 -22.99269531 9.40132812 -23.69726562 9.25390625 C-25.36199514 8.90466229 -27.02494875 8.54697054 -28.6875 8.1875 C-26.16244793 5.15049579 -23.59295622 4.25037532 -19.875 3.0625 C-18.85792969 2.72992188 -17.84085938 2.39734375 -16.79296875 2.0546875 C-11.14615625 0.47784175 -5.85906265 0.02914957 0 0 Z " fill="#D8D8D7" transform="translate(768.6875,178.8125)"/>
<path d="M0 0 C2.97903734 2.97903734 4 5.80285329 4 10 C6.97 10.99 9.94 11.98 13 13 C12 15 12 15 9.625 16.125 C7 17 7 17 4 17 C3.01 19.97 2.02 22.94 1 26 C-2 23 -2 23 -2.625 20.5625 C-4.81822277 16.47513029 -8.79017841 15.550531 -13 14 C-10.81011171 12.21564657 -9.26943301 11.06735825 -6.5 10.375 C-2.47817219 8.16299471 -1.535431 4.16882382 0 0 Z " fill="#0C0C0C" transform="translate(932,347)"/>
<path d="M0 0 C0 9.4472367 -16.66671686 22.32437723 -23 29 C-23.45375 28.525625 -23.9075 28.05125 -24.375 27.5625 C-25.93258204 25.90972192 -25.93258204 25.90972192 -28 25 C-27.39414062 24.52691406 -26.78828125 24.05382812 -26.1640625 23.56640625 C-16.89945995 16.25449685 -8.24068311 8.44785112 0 0 Z " fill="#D7D7D6" transform="translate(952,438)"/>
<path d="M0 0 C0.66 0.99 1.32 1.98 2 3 C0.50902342 6.7952131 -1.75700849 8.61042731 -5 11 C-5.66 10.01 -6.32 9.02 -7 8 C-7.66 7.67 -8.32 7.34 -9 7 C-6.03 4.69 -3.06 2.38 0 0 Z " fill="#D2D2D2" transform="translate(933,456)"/>
<path d="M0 0 C2.4377963 -0.05397335 4.87439685 -0.09365616 7.3125 -0.125 C8.00279297 -0.14175781 8.69308594 -0.15851563 9.40429688 -0.17578125 C13.17135396 -0.21217794 14.78431704 -0.14378864 18 2 C14.6717269 3.66413655 11.00266027 2.81867406 7.375 2.5625 C6.57320312 2.51029297 5.77140625 2.45808594 4.9453125 2.40429688 C2.96320897 2.27451629 0.98155501 2.13790265 -1 2 C-0.67 1.34 -0.34 0.68 0 0 Z " fill="#CECECD" transform="translate(761,179)"/>
<path d="M0 0 C1.32 0.33 2.64 0.66 4 1 C0.19588166 4.91939465 -3.81576108 8.49102731 -8 12 C-6.59023295 8.96147295 -4.91129772 6.4060405 -2.875 3.75 C-2.06675781 2.69039062 -2.06675781 2.69039062 -1.2421875 1.609375 C-0.83226562 1.07828125 -0.42234375 0.5471875 0 0 Z " fill="#202020" transform="translate(653,204)"/>
<path d="M0 0 C0 0.66 0 1.32 0 2 C2.97 2.495 2.97 2.495 6 3 C6 3.33 6 3.66 6 4 C0.39 4 -5.22 4 -11 4 C-7.61125486 1.74083657 -4.15175481 0 0 0 Z " fill="#C5C5C5" transform="translate(909,514)"/>
<path d="M0 0 C4.16138263 -0.08159574 7.9472484 0.01751476 12 1 C12 1.99 12 2.98 12 4 C9.5332355 4.88336837 8.36140628 5.1312406 5.859375 4.22265625 C5.16328125 3.83980469 4.4671875 3.45695313 3.75 3.0625 C3.04359375 2.68222656 2.3371875 2.30195312 1.609375 1.91015625 C1.07828125 1.60980469 0.5471875 1.30945313 0 1 C0 0.67 0 0.34 0 0 Z " fill="#BBBCB9" transform="translate(811,562)"/>
<path d="M0 0 C0 3.99282941 -1.47808076 5.15331592 -4 8.1875 C-4.7425 9.08855469 -5.485 9.98960937 -6.25 10.91796875 C-7.11625 11.94857422 -7.11625 11.94857422 -8 13 C-8.99 12.34 -9.98 11.68 -11 11 C-7.37 7.37 -3.74 3.74 0 0 Z " fill="#B7B7B7" transform="translate(952,438)"/>
<path d="M0 0 C0.99 0 1.98 0 3 0 C3 0.66 3 1.32 3 2 C6.3 2 9.6 2 13 2 C13 2.33 13 2.66 13 3 C8.05 3.33 3.1 3.66 -2 4 C-1.34 2.68 -0.68 1.36 0 0 Z " fill="#303231" transform="translate(539,650)"/>
<path d="M0 0 C3 3 3 3 4 6 C3.67 6.66 3.34 7.32 3 8 C2.34 8 1.68 8 1 8 C0.67 8.66 0.34 9.32 0 10 C0 6.7 0 3.4 0 0 Z " fill="#D8D8D6" transform="translate(229,347)"/>
<path d="M0 0 C0.66 0.33 1.32 0.66 2 1 C0.86500606 4.29148243 0.00716624 4.9959869 -3.125 6.75 C-4.548125 7.36875 -4.548125 7.36875 -6 8 C-6 6 -6 6 -3.5625 3.4375 C-2.716875 2.633125 -1.87125 1.82875 -1 1 C-0.67 0.67 -0.34 0.34 0 0 Z " fill="#C0BFBE" transform="translate(859,473)"/>
<path d="M0 0 C-2.62198774 2.15377564 -4.64404172 3.40072174 -8 4 C-8.33 3.01 -8.66 2.02 -9 1 C-5.92677456 0.08941469 -3.19902639 -0.08886184 0 0 Z " fill="#C0BFBF" transform="translate(738,171)"/>
</svg>
